# xmcd
#
# Track frame offsets:
#	150
#	17064
#	32947
#	48767
#	67406
#	79399
#	95407
#	117250
#	135770
#	151827
#	168594
#	189114
#	204543
#	217764
#
# Disc length: 3073 seconds
#
# Revision: 0
# Processed by: cddbd v1.5.1PL0 Copyright (c) Steve Scherf et al.
# Submitted via: EasyCDDAExtractor 8.2.1.1
#
DISCID=b50bff0e
DTITLE=Lee Ann Womack - Greatest Hits
DYEAR=1900
DGENRE=Country
TTITLE0=Never Again Again
TTITLE1=Youve Got to Talk to Me
TTITLE2=The Fool
TTITLE3=A Little Past Little Rock
TTITLE4=(Now You See Me) Now You Don't
TTITLE5=I'll Think of Reasons Later
TTITLE6=I Hope You Dance
TTITLE7=Ashes by Now
TTITLE8=Why They Call it Falling
TTITLE9=Something Worth Leaving Behind
TTITLE10=Mendocino County Line Feat. Willie Nel-Quick
TTITLE11=Does My Ring Burn Your Finger
TTITLE12=The Wrong Girl
TTITLE13=Time for Me to Go
EXTD=
EXTT0=
EXTT1=
EXTT2=
EXTT3=
EXTT4=
EXTT5=
EXTT6=
EXTT7=
EXTT8=
EXTT9=
EXTT10=
EXTT11=
EXTT12=
EXTT13=
PLAYORDER=
